<?xml version="1.0" encoding="utf-8"?>
<!-- Generator: Adobe Illustrator 28.4.1, SVG Export Plug-In . SVG Version: 6.00 Build 0)  -->
<svg version="1.1" id="SvgjsSvg1038" xmlns:svgjs="http://svgjs.com/svgjs"
	 xmlns="http://www.w3.org/2000/svg" xmlns:xlink="http://www.w3.org/1999/xlink" x="0px" y="0px" viewBox="0 0 288 288"
	 style="enable-background:new 0 0 288 288;" xml:space="preserve">
<style type="text/css">
	.st0{fill:#FFFFFF;}
</style>
<g id="SvgjsG1040">
	<path class="st0" d="M264.4,75.4l0.7-0.5c-1.4-2.5-3.4-4.7-5.4-5.8L151,6.5c-1.8-1.1-4.3-1.6-7-1.6s-5.2,0.7-7,1.6L29,69.3
		c-3.8,2.2-6.5,7.9-6.5,12.2v125.3c0,2.5,0.5,5.2,2,7.6l-0.4,0.2c1.1,1.8,2.7,3.4,4.3,4.3l108.4,62.8c1.8,1.1,4.3,1.6,7,1.6
		c2.7,0,5.2-0.7,7-1.6l108-62.8c3.8-2.2,6.5-7.9,6.5-12.1V81.2C265.5,79.4,265.3,77.4,264.4,75.4L264.4,75.4z M144,199.1
		c20.5,0,38.5-11.2,47.9-27.9l29,17.1c-15.3,26.6-44.1,44.6-77,44.6c-49,0-88.9-39.8-88.9-88.9S95,55.1,144,55.1
		c33.1,0,61.9,18.2,77.2,45L191.9,117c-9.4-16.9-27.4-28.1-47.9-28.1c-30.4,0-55.1,24.8-55.1,55.1S113.6,199.1,144,199.1z"/>
</g>
</svg>
